<svg xmlns="http://www.w3.org/2000/svg" xmlns:xlink="http://www.w3.org/1999/xlink" version="1.1" viewBox="0 58.03 150 33.95"><g id="surface1"><path style=" stroke:none;fill-rule:nonzero;fill:rgb(3.921569%,8.235294%,10.588235%);fill-opacity:1;" d="M 136.820312 67.039062 L 140.796875 67.039062 L 140.796875 80.742188 L 150 80.742188 L 150 84.164062 L 136.820312 84.164062 Z M 127.480469 67.039062 L 134.875 84.164062 L 130.695312 84.164062 L 129.1875 80.605469 L 121.117188 80.605469 L 119.589844 84.164062 L 115.5 84.164062 L 122.945312 67.039062 Z M 122.535156 77.324219 L 127.785156 77.324219 L 125.171875 71.199219 Z M 114.050781 67.039062 L 114.050781 70.460938 L 103.625 70.460938 L 103.625 73.742188 L 112.707031 73.742188 L 112.707031 77.09375 L 103.625 77.09375 L 103.625 80.75 L 114.050781 80.75 L 114.050781 84.171875 L 99.695312 84.171875 L 99.695312 67.046875 L 114.050781 67.046875 Z M 86.121094 84.164062 L 78.746094 67.039062 L 83.070312 67.039062 L 88.363281 79.5625 L 93.683594 67.039062 L 97.867188 67.039062 L 90.46875 84.164062 Z M 77.476562 67.039062 L 77.476562 70.460938 L 67.023438 70.460938 L 67.023438 73.742188 L 76.109375 73.742188 L 76.109375 77.09375 L 67.023438 77.09375 L 67.023438 80.75 L 77.453125 80.75 L 77.453125 84.171875 L 63.117188 84.171875 L 63.117188 67.046875 L 77.476562 67.046875 Z M 48.320312 84.164062 L 44.34375 84.164062 L 44.34375 67.039062 L 53.40625 67.039062 C 57.40625 67.039062 59.996094 68.980469 59.996094 72.539062 C 59.996094 75.101562 58.609375 76.882812 56.25 77.648438 L 60.460938 84.144531 L 55.90625 84.144531 L 52.089844 78.085938 L 48.320312 78.085938 Z M 53.199219 74.828125 C 55.09375 74.828125 56.089844 73.996094 56.089844 72.609375 C 56.089844 71.199219 55.074219 70.390625 53.199219 70.390625 L 48.339844 70.390625 L 48.339844 74.828125 Z M 53.199219 74.828125 "></path><path style=" stroke:none;fill-rule:nonzero;fill:rgb(3.921569%,8.235294%,10.588235%);fill-opacity:1;" d="M 13.953125 60.613281 L 13.953125 63.851562 C 9.382812 64.28125 5.820312 68.140625 5.820312 72.808594 C 5.820312 76.914062 8.574219 80.371094 12.359375 81.457031 L 2.5625 87.617188 L 2.5625 72.777344 C 2.566406 66.335938 7.574219 61.046875 13.953125 60.613281 Z M 13.953125 89.417969 L 3.003906 89.417969 L 13.957031 82.480469 L 13.957031 89.417969 Z M 15.738281 82.511719 L 26.691406 89.449219 L 15.738281 89.449219 Z M 13.953125 79.929688 C 10.390625 79.492188 7.601562 76.441406 7.601562 72.769531 C 7.601562 69.097656 10.386719 66.054688 13.953125 65.613281 Z M 15.738281 65.617188 C 19.304688 66.054688 22.09375 69.105469 22.09375 72.777344 C 22.09375 76.445312 19.304688 79.496094 15.738281 79.933594 Z M 27.128906 72.773438 L 27.128906 87.613281 L 17.335938 81.421875 C 21.089844 80.332031 23.875 76.882812 23.875 72.773438 C 23.875 68.105469 20.308594 64.28125 15.738281 63.8125 L 15.738281 60.613281 C 22.09375 61.046875 27.128906 66.335938 27.128906 72.773438 Z M 14.832031 58.027344 C 6.664062 58.027344 0 64.65625 0 72.777344 L 0 91.972656 L 29.699219 91.972656 L 29.699219 72.777344 C 29.691406 64.65625 23.03125 58.027344 14.832031 58.027344 Z M 14.832031 58.027344 "></path></g></svg>